<?xml version="1.0" encoding="utf-8"?>
<svg version="1.1" xmlns="http://www.w3.org/2000/svg" xml:space="preserve" x="0px" y="0px" width="351.479px" height="134.282px" viewBox="0 0 351.479 134.282" enable-background="new 0 0 351.479 134.282">
	<g>
		<path fill="#006BB6" d="M298.249,64.669v19.744l0.047,0.747l-0.756-0.047h-9.58l-0.756,0.047l0.045-0.747V66.406 c0-5.25-3.021-7.758-6.75-7.758c-3.727,0-6.75,2.508-6.75,7.758v18.007l0.047,0.747l-0.756-0.047h-9.58l-0.756,0.047l0.045-0.747 V66.406c0-9.803,7.947-17.75,17.75-17.75c4.172,0,7.998,1.447,11.029,3.854l0.215,0.653l0.213-0.636 c0.311-0.336,0.631-0.66,0.965-0.973l0.652-0.146l-0.602-0.278c-2.619-2.92-4.223-6.769-4.223-10.999V0.747L288.704,0l0.756,0.047 h9.58L299.795,0l-0.047,0.747v39.386c0,4.271,2.461,6.312,5.492,6.312c3.033,0,5.492-2.041,5.492-6.312V0.747L310.688,0 l0.756,0.047h9.578L321.78,0l-0.047,0.747v39.386c0,4.23-1.604,8.079-4.223,10.999l-0.602,0.278l0.652,0.146 c0.334,0.312,0.656,0.637,0.967,0.973l0.213,0.636l0.213-0.653c3.031-2.407,6.859-3.854,11.029-3.854 c9.803,0,17.75,7.947,17.75,17.75v18.007l0.047,0.747l-0.758-0.047h-9.578l-0.756,0.047l0.045-0.747V66.406 c0-5.25-3.023-7.758-6.75-7.758c-3.729,0-6.75,2.508-6.75,7.758v18.007l0.047,0.747l-0.758-0.047h-9.578l-0.756,0.047l0.045-0.747 V64.669c0-5.438-3.129-8.036-6.992-8.036C301.379,56.633,298.249,59.23,298.249,64.669z"></path>
		<path d="M82.358,129.034c-1.405,1.1-3.136,2.057-5.769,2.057c-3.471,0-6.439-2.52-6.439-9.354c0-7.041,2.428-10.302,6.385-10.302 c2.668,0,4.543,0.948,5.823,2.388V129.034z M82.358,133.722h10.136v-1.064l-3.752-0.895V97.267H78.328v1.181l4.03,1.124v11.646 c-1.78-1.479-4.446-2.694-8.008-2.694c-6.328,0-10.994,5.548-10.994,13.271c0,7.902,4.274,12.488,11.05,12.488 c3.297,0,6.047-1.273,7.952-3.021V133.722z"></path>
		<polygon points="177.668,97.266 177.668,98.386 173.862,99.394 173.862,131.593 177.668,132.601 177.668,133.722 161.84,133.722 161.84,132.546 166.917,131.593 166.917,105.945 155.084,133.722 152.34,133.722 140.71,105.833 140.71,131.593 145.606,132.433 145.606,133.722 134.156,133.722 134.156,132.601 137.404,131.649 137.404,99.337 134.156,98.386 134.156,97.266 144.356,97.266 155.684,125.171 167.329,97.266"></polygon>
		<path d="M193.577,110.314c4.367,0,6.664,4.872,6.664,11.03c0,6.104-2.297,11.145-6.664,11.145c-4.312,0-6.664-5.041-6.664-11.145 C186.913,115.243,189.264,110.314,193.577,110.314z M193.577,108.522c-7.168,0-13.607,4.984-13.607,12.879 c0,7.672,6.496,12.879,13.607,12.879c7.168,0,13.664-5.207,13.664-12.879C207.241,113.507,200.745,108.522,193.577,108.522z"></path>
		<path d="M325.432,129.634c-1.287,0.84-2.408,1.68-4.424,1.68c-3.248,0.057-4.145-1.961-4.145-4.312 c0-2.408,1.625-4.031,4.592-4.535l3.977-0.449V129.634z M325.432,116.138v4.199l-5.656,0.281c-5.488,0.168-8.904,3.135-8.904,7.223 c0,4.145,3.08,6.439,7.168,6.439c3.361,0,5.77-1.623,7.393-2.799v2.24h9.281v-1.064l-3.01-0.896v-16.686 c0-3.641-2.408-6.553-7.84-6.553c-5.543,0-9.016,1.568-10.975,2.408v5.768h2.771l0.916-4.795c0.637-0.27,2.355-0.863,5.104-0.637 C324.981,111.538,325.375,113.843,325.432,116.138z"></path>
		<polygon points="351.479,132.657 351.479,133.722 337.592,133.722 337.592,132.657 341.344,131.761 341.344,99.397 337.592,98.446 337.592,97.266 347.727,97.266 347.727,131.761"></polygon>
		<path d="M30.454,50.896l-5.432-1.063v-1.176h12.603v1.12l-3.863,1.119v22.05c0,9.174-5.001,12.896-15.25,12.896 c-10.501,0-14.76-4.02-14.76-12.319V50.728L0,49.776v-1.12h16.129v1.231l-5.488,0.952v22.346c0,6.761,2.303,10.08,9.352,10.08 c7.645,0,10.462-3.443,10.462-10.694V50.896z"></path>
		<path d="M52.148,84.049v1.064H38.541v-1.064l3.695-0.896V62.321l-3.359-0.952v-1.173h9.744v3.805 c1.119-0.951,4.647-4.088,9.184-4.088c4.703,0,7.111,2.632,7.111,7.225v15.96l3.584,0.896v1.12H55.284v-1.12l3.304-0.84V67.865 c0-2.408-0.728-4.536-3.752-4.536c-2.688,0-5.432,1.904-6.215,2.408v17.416L52.148,84.049z"></path>
		<g>
			<polygon points="80.857,83.153 84.554,84.049 84.554,85.113 70.722,85.113 70.722,84.049 74.474,83.153 74.474,62.321 71.114,61.369 71.114,60.196 80.857,60.196"></polygon>
			<path d="M81.193,51.624c0,1.904-1.68,3.473-3.695,3.473c-1.961,0-3.696-1.568-3.696-3.473c0-1.903,1.735-3.527,3.696-3.527 C79.514,48.097,81.193,49.721,81.193,51.624z"></path>
		</g>
		<g>
			<polygon points="190.85,83.153 194.547,84.049 194.547,85.113 180.715,85.113 180.715,84.049 184.467,83.153 184.467,62.321 181.108,61.369 181.108,60.196 190.85,60.196"></polygon>
			<path d="M191.186,51.624c0,1.904-1.68,3.473-3.695,3.473c-1.959,0-3.695-1.568-3.695-3.473c0-1.903,1.736-3.527,3.695-3.527 C189.506,48.097,191.186,49.721,191.186,51.624z"></path>
		</g>
		<polygon points="86.574,61.932 84.781,61.204 84.781,60.196 96.878,60.196 96.878,61.204 93.014,62.156 98.568,77.329 104.076,62.044 100.715,61.204 100.715,60.196 109.003,60.196 109.003,61.204 106.987,62.156 97.504,85.505 95.432,85.505"></polygon>
		<path d="M126.57,69.153h-9.911c0.559-4.256,2.239-7.392,5.207-7.392C125.226,61.762,126.346,65.682,126.57,69.153z M116.377,71.113 h16.465c-0.168-6.888-3.752-11.2-10.977-11.2c-7.111,0-12.375,6.16-12.375,12.88c0,7.784,5.096,12.88,12.432,12.88 c6.271,0,9.52-2.464,11.424-3.863l-1.064-1.681c-1.455,0.896-4.367,2.856-9.184,2.576 C118.282,82.369,115.874,77.329,116.377,71.113z"></path>
		<path d="M175.709,61.201l-0.559,6.104h-2.297l-0.561-4.145c-0.84-0.447-1.959-1.399-4.424-1.399c-2.016,0-3.584,1.063-3.584,3.248 c0,2.575,2.855,3.584,5.713,4.872c2.744,1.176,7.225,2.855,7.225,7.279c0,5.04-4.145,8.512-9.129,8.512 c-4.592,0-7.281-1.063-8.064-1.344l-0.447-6.775l2.352-0.225l1.344,4.592c0.672,0.504,2.52,1.96,4.76,1.904 c3.193,0,4.705-1.68,4.705-4.088c0-2.856-3.977-4.088-6.609-5.32c-2.463-1.176-6.271-2.239-6.271-7.336 c0-4.199,3.473-7.168,8.176-7.168C172.071,59.913,174.59,60.865,175.709,61.201z"></path>
		<polygon points="236.979,51.962 234.571,48.378 226.004,55.098 227.403,57.113"></polygon>
		<path d="M232.276,69.153h-9.912c0.561-4.256,2.24-7.392,5.207-7.392C230.932,61.762,232.051,65.682,232.276,69.153z M222.083,71.113h16.465c-0.168-6.888-3.752-11.2-10.977-11.2c-7.111,0-12.375,6.16-12.375,12.88c0,7.784,5.096,12.88,12.432,12.88 c6.271,0,9.52-2.464,11.424-3.863l-1.064-1.681c-1.455,0.896-4.367,2.856-9.184,2.576 C223.987,82.369,221.579,77.329,222.083,71.113z"></path>
		<path d="M153.917,59.953c-3.588,0-6.17,2.879-7.627,6.119h-0.115v-5.876h-10.137v1.032l3.752,1.093v20.832l-3.752,0.896v1.064 h15.568v-1.232l-5.432-0.896V68.841c1.488-3.27,3.682-4.596,5.074-4.596c1.043,0,1.436,0.213,2.248,0.909 c0.289,0.231,1.361,0.54,2,0.25c1.217-0.522,1.551-1.416,1.551-2.725C157.047,61.238,155.657,59.953,153.917,59.953z"></path>
		<path d="M223.362,132.657v1.064h-13.609v-1.064l3.697-0.896v-20.83l-3.359-0.952v-1.173h9.742v3.805 c1.121-0.951,4.648-4.088,9.184-4.088c4.705,0,7.113,2.632,7.113,7.225v15.959l3.584,0.895v1.121h-13.217v-1.121l3.305-0.84 v-15.287c0-2.408-0.729-4.535-3.752-4.535c-2.688,0-5.432,1.904-6.217,2.408v17.414L223.362,132.657z"></path>
		<path d="M279.266,108.562c-3.586,0-6.17,2.878-7.627,6.118h-0.115v-5.875h-10.135v1.032l3.752,1.093v20.83l-3.752,0.896v1.064 h15.566v-1.232l-5.432-0.896V117.45c1.488-3.27,3.682-4.596,5.074-4.596c1.045,0,1.436,0.213,2.248,0.908 c0.291,0.232,1.361,0.541,2,0.25c1.219-0.521,1.553-1.416,1.553-2.725C282.399,109.848,281.006,108.562,279.266,108.562z"></path>
		<path d="M213.247,82.321c-0.938,0.625-1.896,1.083-3.312,1.083c-2.25,0-2.973-1.646-2.973-5.333V62.38l6.383-0.952v-1.231h-6.383 v-11.54h-2.084c-0.422,6.604-2.756,10.938-8.65,11.54h-0.971v1.231l5.32,0.952v16.024c0,5.084,1.232,7.269,5.992,7.269 c3.428,0,6.178-1.289,7.303-2.352L213.247,82.321z"></path>
		<path d="M258.477,130.929c-0.938,0.625-1.895,1.084-3.312,1.084c-2.25,0-2.973-1.646-2.973-5.334v-15.689l6.385-0.952v-1.231 h-6.385v-11.54h-2.084c-0.422,6.604-2.756,10.938-8.65,11.54h-0.969v1.231l5.318,0.952v16.023c0,5.084,1.232,7.268,5.992,7.268 c3.43,0,6.178-1.289,7.303-2.352L258.477,130.929z"></path>
		<path d="M111.436,117.763h-9.912c0.561-4.256,2.24-7.391,5.209-7.391C110.092,110.372,111.211,114.292,111.436,117.763z M101.245,119.724h16.463c-0.168-6.889-3.752-11.2-10.975-11.2c-7.113,0-12.377,6.159-12.377,12.878 c0,7.785,5.096,12.881,12.432,12.881c6.271,0,9.52-2.465,11.424-3.863l-1.064-1.682c-1.455,0.896-4.367,2.857-9.184,2.576 C103.149,130.978,100.741,125.938,101.245,119.724z"></path>
		<path d="M300.061,117.763h-9.912c0.561-4.256,2.24-7.392,5.207-7.392C298.717,110.371,299.836,114.29,300.061,117.763z M304.764,100.571l-2.408-3.584l-8.566,6.72l1.398,2.016L304.764,100.571z M289.868,119.722h16.465 c-0.168-6.887-3.752-11.199-10.977-11.199c-7.111,0-12.375,6.16-12.375,12.879c0,7.783,5.096,12.879,12.432,12.879 c6.271,0,9.52-2.463,11.424-3.863l-1.064-1.68c-1.455,0.896-4.367,2.855-9.184,2.576 C291.772,130.978,289.364,125.937,289.868,119.722z"></path>
	</g>
</svg>
